HIERARCHY
ROOT Hips
{
	OFFSET 0.000000 0.000000 0.000000
	CHANNELS 6 Xposition Yposition Zposition Yrotation Xrotation Zrotation
	JOINT Chest
	{
		OFFSET 0.000000 -0.009281 11.569106
		CHANNELS 3 Yrotation Xrotation Zrotation
		JOINT Chest2
		{
			OFFSET -0.000000 0.016865 9.269641
			CHANNELS 3 Yrotation Xrotation Zrotation
			JOINT Chest3
			{
				OFFSET -0.000000 0.000001 8.374491
				CHANNELS 3 Yrotation Xrotation Zrotation
				JOINT Chest4
				{
					OFFSET -0.000000 0.000001 8.374493
					CHANNELS 3 Yrotation Xrotation Zrotation
					JOINT Neck
					{
						OFFSET -0.000000 0.000002 12.152554
						CHANNELS 3 Yrotation Xrotation Zrotation
						JOINT Head
						{
							OFFSET -0.000000 0.040101 7.802319
							CHANNELS 3 Yrotation Xrotation Zrotation
							End Site
							{
								OFFSET -0.000000 0.020947 14.853096
							}
						}
					}
					JOINT RightCollar
					{
						OFFSET 2.894404 0.000001 6.791374
						CHANNELS 3 Yrotation Xrotation Zrotation
						JOINT RightShoulder
						{
							OFFSET 13.574684 0.000001 0.000000
							CHANNELS 3 Yrotation Xrotation Zrotation
							JOINT RightElbow
							{
								OFFSET 23.923903 0.000002 0.000000
								CHANNELS 3 Yrotation Xrotation Zrotation
								JOINT RightWrist
								{
									OFFSET 19.846718 0.012767 0.000000
									CHANNELS 3 Yrotation Xrotation Zrotation
									End Site
									{
										OFFSET 14.973145 0.000001 0.000000
									}
								}
							}
						}
					}
					JOINT LeftCollar
					{
						OFFSET -2.894404 0.000001 6.791374
						CHANNELS 3 Yrotation Xrotation Zrotation
						JOINT LeftShoulder
						{
							OFFSET -13.574684 -0.000001 0.000000
							CHANNELS 3 Yrotation Xrotation Zrotation
							JOINT LeftElbow
							{
								OFFSET -23.923903 -0.000002 0.000000
								CHANNELS 3 Yrotation Xrotation Zrotation
								JOINT LeftWrist
								{
									OFFSET -19.846718 0.012763 0.000000
									CHANNELS 3 Yrotation Xrotation Zrotation
									End Site
									{
										OFFSET -14.973145 -0.000001 0.000000
									}
								}
							}
						}
					}
				}
			}
		}
	}
	JOINT RightHip
	{
		OFFSET 9.469263 0.004643 0.045487
		CHANNELS 3 Yrotation Xrotation Zrotation
		JOINT RightKnee
		{
			OFFSET 0.000000 0.002661 -40.478676
			CHANNELS 3 Yrotation Xrotation Zrotation
			JOINT RightAnkle
			{
				OFFSET 0.000000 0.049106 -35.224068
				CHANNELS 3 Yrotation Xrotation Zrotation
				JOINT RightToe
				{
					OFFSET -0.000001 12.539529 -6.151390
					CHANNELS 3 Yrotation Xrotation Zrotation
					End Site
					{
						OFFSET -0.000001 5.044994 -1.291870
					}
				}
			}
		}
	}
	JOINT LeftHip
	{
		OFFSET -9.469263 0.004641 0.045487
		CHANNELS 3 Yrotation Xrotation Zrotation
		JOINT LeftKnee
		{
			OFFSET 0.000000 0.002661 -40.478676
			CHANNELS 3 Yrotation Xrotation Zrotation
			JOINT LeftAnkle
			{
				OFFSET 0.000000 0.049106 -35.224068
				CHANNELS 3 Yrotation Xrotation Zrotation
				JOINT LeftToe
				{
					OFFSET -0.000001 12.539529 -6.151390
					CHANNELS 3 Yrotation Xrotation Zrotation
					End Site
					{
						OFFSET -0.000001 5.044994 -1.291870
					}
				}
			}
		}
	}
}
MOTION
Frames: 15
Frame Time: 0.016667
3.518899 -1.146896 82.153397 -2.683795 -2.871018 -98.944388 0.282522 -2.336080 -4.966053 0.417141 -1.095814 -2.296256 0.417141 -1.095814 -2.296258 0.308734 -0.823442 -1.721391 4.766562 -21.045041 -3.146131 7.730229 -2.854748 -4.315738 9.951989 3.701318 -1.899299 45.430290 16.877911 -18.165571 -5.775060 -12.196126 -7.864025 7.483504 -3.325354 -11.589596 -8.599009 -2.530255 -4.406836 -74.034934 -4.486855 -18.245112 -5.173862 10.601612 -6.624216 9.057265 4.487527 -18.954296 8.368251 3.563359 -1.992853 5.940415 -7.828066 -12.443128 4.476087 5.066221 8.385360 0.875751 2.676628 -0.377028 -0.051863 -9.747274 -3.832033 -4.383334 -28.448085 20.636146 0.402020 -39.928319 -13.829735 29.836554 73.044884 22.323336 
3.926930 -1.134706 81.864883 -2.716980 -3.547227 -98.648518 0.521404 -2.458780 -4.769939 0.403135 -1.124010 -2.210634 0.403134 -1.124010 -2.210636 0.298280 -0.844480 -1.657183 5.104099 -20.918127 -3.373364 8.275370 -2.612846 -4.623984 9.912772 3.536563 -1.921342 45.479289 16.334449 -17.100398 -5.853631 -13.348836 -7.804130 7.142384 -3.898160 -11.642960 -8.586039 -2.415719 -4.395091 -74.022482 -4.095984 -17.967173 -4.964507 11.246663 -6.179887 9.121657 4.931151 -18.853513 9.023430 3.395871 -2.027538 6.168660 -8.294750 -12.264916 3.777381 5.747876 7.435728 1.112205 2.154765 -0.069434 1.571108 -8.751698 -3.677726 -4.295506 -30.531741 20.001331 -2.380837 -41.589408 -13.644934 37.613172 74.207922 28.689001 
4.328487 -1.211999 81.605797 -2.718111 -4.186576 -98.362306 0.710010 -2.575143 -4.549045 0.384409 -1.136844 -2.120495 0.384409 -1.136844 -2.120494 0.284357 -0.853979 -1.589605 5.447094 -20.796273 -3.615784 8.825842 -2.379356 -4.957731 9.900792 3.451813 -2.005064 45.627655 15.781746 -15.931167 -5.975508 -14.534441 -7.776783 6.789776 -4.503081 -11.669408 -8.550192 -2.383875 -4.413273 -73.985914 -3.604731 -17.705493 -4.740484 11.874954 -5.736254 9.279196 5.441634 -18.745367 9.698490 3.228681 -1.923207 6.384090 -8.670304 -12.272142 3.102787 6.374352 6.651585 1.286446 1.684315 0.155873 3.072477 -7.609795 -3.539709 -4.209342 -32.640641 18.960173 -4.953427 -43.167533 -13.302706 46.290723 75.028726 36.071694 
4.690974 -1.317835 81.373047 -2.631112 -4.670962 -98.179386 0.763325 -2.612599 -4.215063 0.367157 -1.128742 -2.029497 0.367157 -1.128742 -2.029497 0.271613 -0.847787 -1.521393 5.773844 -20.684883 -3.870155 9.343137 -2.164182 -5.317822 9.893714 3.416212 -2.104941 45.811923 15.201218 -14.717425 -6.070877 -15.716301 -7.749956 6.330128 -5.089297 -11.602348 -8.535023 -2.329975 -4.427271 -73.952220 -3.078163 -17.327157 -4.511530 12.460146 -5.339203 9.528517 6.056067 -18.625405 10.218390 3.228576 -1.571619 6.679533 -9.129341 -12.549209 2.484664 7.080417 6.109509 1.386675 1.202383 0.283843 4.312748 -6.219777 -3.391571 -4.089471 -34.802867 17.416883 -6.750286 -43.990574 -12.961567 52.948699 75.295452 41.793145 
4.978365 -1.416007 81.161942 -2.426948 -4.997241 -98.020755 0.693142 -2.541671 -3.841371 0.351353 -1.103505 -1.940382 0.351352 -1.103505 -1.940384 0.260005 -0.828753 -1.454605 6.076356 -20.573397 -4.134129 9.813276 -1.947751 -5.702022 9.897563 3.342761 -2.178191 46.030492 14.658197 -13.460613 -6.152522 -16.819780 -7.663550 5.759053 -5.655489 -11.407387 -8.529901 -2.228982 -4.412494 -73.951510 -2.559760 -16.852163 -4.238597 12.986540 -4.944168 9.798914 6.754085 -18.571769 10.566540 3.534405 -0.934604 7.058949 -9.790689 -13.213665 1.947503 7.837781 5.697123 1.432856 0.783388 0.356211 5.227257 -4.560646 -3.381768 -4.025997 -36.968505 15.503788 -8.023666 -42.955377 -12.045460 52.807915 74.795831 41.399802 
5.213221 -1.559145 80.972931 -2.183940 -5.399857 -97.647738 0.736460 -2.455891 -3.653829 0.333673 -1.079442 -1.847999 0.333673 -1.079442 -1.847999 0.246986 -0.810599 -1.385366 6.359899 -20.437919 -4.406994 10.245734 -1.685790 -6.106370 9.899032 3.270074 -2.294403 46.254017 14.056632 -12.193860 -6.168185 -17.783202 -7.472596 5.043414 -6.161558 -11.104402 -8.513017 -2.086831 -4.409807 -74.007231 -2.008057 -16.326811 -3.910222 13.434370 -4.526909 10.057553 7.481951 -18.632403 11.027905 3.967433 -0.437262 7.401700 -10.532841 -14.005345 1.466135 8.451115 5.423705 1.446993 0.588830 0.386368 6.019872 -2.810787 -3.791305 -3.920870 -38.947299 13.638324 -9.282283 -39.914041 -9.698939 43.902031 73.809667 33.544319 
5.430892 -1.759211 80.802635 -1.907954 -5.876279 -97.106015 0.907918 -2.394875 -3.618410 0.314556 -1.061979 -1.748663 0.314556 -1.061979 -1.748663 0.232873 -0.797393 -1.310914 6.618084 -20.252949 -4.682794 10.630257 -1.331352 -6.520662 9.907439 3.246259 -2.372111 46.489686 13.391212 -10.963492 -6.183583 -18.634764 -7.190583 4.345825 -6.523796 -10.830605 -8.499855 -1.847656 -4.388951 -74.126848 -1.443345 -15.744373 -3.566611 13.836278 -4.116987 10.328354 8.147601 -18.805982 11.604316 4.427424 -0.164539 7.702791 -11.207076 -14.631626 0.915329 8.892491 5.123543 1.480836 0.582435 0.363231 6.728637 -0.940906 -4.572284 -3.776876 -40.612711 12.203529 -9.459843 -35.418182 -6.857571 29.180436 71.695225 21.203161 
5.655138 -1.986319 80.650238 -1.633350 -6.252674 -96.571075 1.040890 -2.371849 -3.559268 0.285567 -1.045098 -1.646644 0.285567 -1.045099 -1.646646 0.211356 -0.784600 -1.234460 6.854243 -20.027141 -4.954208 10.974991 -0.900971 -6.931076 9.907265 3.141759 -2.422278 46.798923 12.777138 -9.617841 -6.237954 -19.431509 -6.887599 3.819709 -6.872787 -10.638721 -8.474856 -1.646361 -4.373082 -74.304057 -0.816449 -15.196920 -3.241480 14.245154 -3.738687 10.636238 8.744564 -19.078989 12.146097 4.836760 0.040630 7.924181 -11.754884 -14.977300 0.211664 9.301177 4.600792 1.592718 0.588851 0.304112 7.233218 1.008454 -5.449636 -3.369640 -41.854894 11.169678 -8.070803 -30.522179 -4.412327 14.360589 68.022797 9.683817 
5.887887 -2.227728 80.516960 -1.319321 -6.450409 -96.085633 1.060962 -2.332041 -3.429111 0.246235 -1.015922 -1.545317 0.246234 -1.015922 -1.545318 0.182103 -0.762570 -1.158549 7.069357 -19.783610 -5.220325 11.282100 -0.437632 -7.336971 9.852069 2.860356 -2.533096 47.210073 12.298192 -8.060600 -6.312438 -20.210388 -6.570611 3.442157 -7.281169 -10.558018 -8.435512 -1.549940 -4.366773 -74.486136 -0.166641 -14.702901 -2.968602 14.656882 -3.392386 10.965819 9.385247 -19.386408 12.588795 5.265884 0.284258 8.044045 -12.236520 -15.141116 -0.589142 9.717390 3.909418 1.753974 0.559827 0.263706 7.497536 3.076199 -6.308771 -2.650043 -42.639884 10.251004 -5.343750 -25.909167 -2.365730 2.144958 63.122860 1.316143 
6.105217 -2.466654 80.400803 -0.928968 -6.512023 -95.635325 0.982879 -2.253450 -3.228607 0.196304 -0.977119 -1.441230 0.196303 -0.977119 -1.441229 0.144921 -0.733308 -1.080582 7.283692 -19.529234 -5.488311 11.586315 0.046164 -7.745638 9.804070 2.628858 -2.702850 47.609755 11.879296 -6.485259 -6.378442 -20.977063 -6.234007 3.111624 -7.687107 -10.507751 -8.372327 -1.397214 -4.372187 -74.633491 0.351798 -14.133969 -2.717465 15.108032 -3.062519 11.248884 10.106667 -19.653277 12.895025 5.849608 0.658757 8.192089 -12.820121 -15.446809 -1.349696 10.150013 3.326984 1.869377 0.542234 0.236074 7.522230 5.285647 -7.184452 -1.644585 -42.976916 9.446475 -2.059844 -21.800084 -0.583595 -6.992594 57.428394 -3.841245 
6.260499 -2.691519 80.296288 -0.504268 -6.569438 -95.252227 0.902790 -2.149121 -2.915214 0.147601 -0.945160 -1.335551 0.147600 -0.945160 -1.335551 0.108633 -0.709197 -1.001413 7.499674 -19.271382 -5.760234 11.891478 0.536822 -8.160546 9.822900 2.577700 -2.818685 47.892696 11.490518 -5.045448 -6.404697 -21.654152 -5.949350 2.680569 -7.999845 -10.365088 -8.305941 -1.132205 -4.362202 -74.756543 0.686038 -13.464130 -2.438534 15.580391 -2.730908 11.451561 10.833772 -19.832955 13.104338 6.613744 1.263167 8.540646 -13.574974 -15.898998 -2.062071 10.545045 2.728515 1.884724 0.596421 0.207254 7.433291 7.558529 -8.036852 -0.345251 -43.005562 8.922484 1.218306 -18.128705 0.600299 -13.393464 51.399550 -6.492242 
6.390520 -2.885295 80.195168 -0.147210 -6.616274 -94.882782 0.812938 -2.079959 -2.581392 0.112377 -0.903345 -1.240798 0.112378 -0.903345 -1.240800 0.082448 -0.677740 -0.930414 7.692091 -19.039115 -6.021919 12.156404 0.979782 -8.565360 9.830132 2.538411 -2.882427 48.199265 11.044264 -3.648446 -6.472348 -22.091805 -5.722021 2.079088 -8.279201 -10.089304 -8.294266 -0.873246 -4.262068 -74.872397 0.939936 -12.748513 -2.105173 15.996937 -2.381419 11.593471 11.472078 -19.933519 13.233608 7.352801 1.847194 8.952034 -14.383738 -16.234461 -2.660691 10.931181 2.076545 1.799560 0.657502 0.155129 7.167264 9.756032 -8.911511 1.078703 -42.736606 8.348044 4.194006 -14.975564 1.582099 -17.864872 45.503192 -7.625648 
6.549734 -3.042289 80.091309 0.086253 -6.612015 -94.452849 0.672359 -2.132118 -2.304158 0.079254 -0.867556 -1.149709 0.079254 -0.867556 -1.149709 0.057808 -0.650818 -0.862153 7.878890 -18.801310 -6.275406 12.412863 1.432765 -8.956588 9.782512 2.449061 -3.009175 48.662263 10.559985 -2.138122 -6.597979 -22.418703 -5.493685 1.355299 -8.571821 -9.766025 -8.276710 -0.695685 -4.151620 -75.016132 1.302298 -12.091570 -1.746745 16.280237 -2.045323 11.728322 11.951908 -20.003730 13.251689 7.891087 2.235496 9.358062 -15.071794 -16.566405 -3.129931 11.378930 1.577712 1.654037 0.624537 0.087837 6.638035 11.847760 -9.873896 2.404058 -42.291244 7.310667 6.406903 -12.464340 2.810645 -20.556330 40.138317 -7.760845 
6.761981 -3.182350 79.987320 0.243412 -6.618527 -93.978219 0.545261 -2.289598 -2.046233 0.048780 -0.847290 -1.054804 0.048780 -0.847290 -1.054805 0.035122 -0.635554 -0.791023 8.063051 -18.537610 -6.530197 12.662889 1.933892 -9.349612 9.745602 2.251999 -3.078349 49.164258 10.332342 -0.528746 -6.753368 -22.875407 -5.225135 0.661246 -8.888070 -9.455243 -8.220869 -0.586553 -4.079418 -75.203368 1.805597 -11.519670 -1.397160 16.410440 -1.731217 11.876366 12.255138 -20.092941 13.265787 8.251418 2.393735 9.688472 -15.651537 -17.018099 -3.473814 11.889202 1.386620 1.502272 0.528726 0.019163 5.976623 13.862862 -10.843173 3.469109 -41.817642 5.819066 7.874733 -10.465662 4.044243 -21.689687 35.471641 -7.269174 
6.976930 -3.296187 79.887215 0.565130 -6.585347 -93.408103 0.410234 -2.298823 -1.895157 0.022517 -0.830087 -0.962243 0.022517 -0.830088 -0.962243 0.015580 -0.622604 -0.721640 8.229383 -18.266888 -6.776483 12.882077 2.447634 -9.732499 9.741238 2.018467 -3.068894 49.638721 10.246124 1.089159 -6.904432 -23.418273 -4.922038 0.003166 -9.231696 -9.124645 -8.147694 -0.534032 -3.993840 -75.419024 2.364786 -11.001279 -1.055099 16.425753 -1.414418 12.038438 12.416293 -20.219576 13.228556 8.779430 2.247242 9.951610 -16.252546 -17.285923 -3.795607 12.418312 1.204239 1.383912 0.428816 -0.020220 5.138322 16.002911 -11.825443 4.403364 -41.229901 4.181304 8.647054 -8.724563 4.764204 -21.501227 31.310537 -6.312245 
